REM DIRINDEX 1\2\4,1\2\5,1\2\6,1\3\7,1\3\8
REM DIRNAME folder01,folder02,folder03,folder04,folder05,folder06,folder07,folder08
TITLE ""
FILE "006_Lesson 05_Output_Stage.mp3" MP3
  TRACK 01 AUDIO
    TITLE "0:"
    INDEX 01 00:00:00
  TRACK 02 AUDIO
    TITLE "8:cjc128_2609"
    INDEX 01 00:00:11
  TRACK 03 AUDIO
    TITLE "0:"
    INDEX 01 00:02:73
  TRACK 04 AUDIO
    TITLE "8:cjc128_2610"
    INDEX 01 00:03:29
  TRACK 05 AUDIO
    TITLE "0:"
    INDEX 01 00:04:44
  TRACK 06 AUDIO
    TITLE "7:cjc128_2611"
    INDEX 01 00:05:36
  TRACK 07 AUDIO
    TITLE "0:"
    INDEX 01 00:08:28
  TRACK 08 AUDIO
    TITLE "8:cjc128_2612"
    INDEX 01 00:11:68
  TRACK 09 AUDIO
    TITLE "0:"
    INDEX 01 00:13:10
  TRACK 10 AUDIO
    TITLE "7:cjc128_2613"
    INDEX 01 00:14:04
  TRACK 11 AUDIO
    TITLE "0:"
    INDEX 01 00:16:02
  TRACK 12 AUDIO
    TITLE "8:cjc128_2614"
    INDEX 01 00:18:44
  TRACK 13 AUDIO
    TITLE "0:"
    INDEX 01 00:19:62
  TRACK 14 AUDIO
    TITLE "7:cjc128_2615"
    INDEX 01 00:20:55
  TRACK 15 AUDIO
    TITLE "0:"
    INDEX 01 00:22:56
  TRACK 16 AUDIO
    TITLE "8:cjc128_2616"
    INDEX 01 00:25:46
  TRACK 17 AUDIO
    TITLE "0:"
    INDEX 01 00:26:67
  TRACK 18 AUDIO
    TITLE "7:cjc128_2617"
    INDEX 01 00:27:57
  TRACK 19 AUDIO
    TITLE "0:"
    INDEX 01 00:30:38
  TRACK 20 AUDIO
    TITLE "8:cjc128_2618"
    INDEX 01 00:34:04
  TRACK 21 AUDIO
    TITLE "0:"
    INDEX 01 00:35:31
  TRACK 22 AUDIO
    TITLE "7:cjc128_2619"
    INDEX 01 00:36:21
  TRACK 23 AUDIO
    TITLE "0:"
    INDEX 01 00:38:55
  TRACK 24 AUDIO
    TITLE "8:cjc128_2620"
    INDEX 01 00:41:69
  TRACK 25 AUDIO
    TITLE "0:"
    INDEX 01 00:43:17
  TRACK 26 AUDIO
    TITLE "7:cjc128_2621"
    INDEX 01 00:44:09
  TRACK 27 AUDIO
    TITLE "0:"
    INDEX 01 00:47:07
  TRACK 28 AUDIO
    TITLE "8:cjc128_2622"
    INDEX 01 00:50:56
  TRACK 29 AUDIO
    TITLE "0:"
    INDEX 01 00:52:02
  TRACK 30 AUDIO
    TITLE "7:cjc128_2623"
    INDEX 01 00:52:65
  TRACK 31 AUDIO
    TITLE "0:"
    INDEX 01 00:55:32
  TRACK 32 AUDIO
    TITLE "8:cjc128_2624"
    INDEX 01 00:58:52
  TRACK 33 AUDIO
    TITLE "0:"
    INDEX 01 00:59:67
  TRACK 34 AUDIO
    TITLE "7:cjc128_2625"
    INDEX 01 01:00:55
  TRACK 35 AUDIO
    TITLE "0:"
    INDEX 01 01:03:10
  TRACK 36 AUDIO
    TITLE "8:cjc128_2626"
    INDEX 01 01:06:24
  TRACK 37 AUDIO
    TITLE "0:"
    INDEX 01 01:07:43
  TRACK 38 AUDIO
    TITLE "7:cjc128_2627"
    INDEX 01 01:08:29
  TRACK 39 AUDIO
    TITLE "0:"
    INDEX 01 01:11:02
  TRACK 40 AUDIO
    TITLE "8:cjc128_2628"
    INDEX 01 01:14:16
  TRACK 41 AUDIO
    TITLE "0:"
    INDEX 01 01:15:29
  TRACK 42 AUDIO
    TITLE "7:cjc128_2629"
    INDEX 01 01:16:18
  TRACK 43 AUDIO
    TITLE "0:"
    INDEX 01 01:18:29
  TRACK 44 AUDIO
    TITLE "8:cjc128_2630"
    INDEX 01 01:21:04
  TRACK 45 AUDIO
    TITLE "0:"
    INDEX 01 01:22:58
  TRACK 46 AUDIO
    TITLE "7:cjc128_2631"
    INDEX 01 01:23:48
  TRACK 47 AUDIO
    TITLE "0:"
    INDEX 01 01:25:43
  TRACK 48 AUDIO
    TITLE "8:cjc128_2632"
    INDEX 01 01:28:16
  TRACK 49 AUDIO
    TITLE "0:"
    INDEX 01 01:30:05
  TRACK 50 AUDIO
    TITLE "7:cjc128_2633"
    INDEX 01 01:30:67
  TRACK 51 AUDIO
    TITLE "0:"
    INDEX 01 01:32:49
  TRACK 52 AUDIO
    TITLE "8:cjc128_2634"
    INDEX 01 01:35:08
  TRACK 53 AUDIO
    TITLE "0:"
    INDEX 01 01:36:58
  TRACK 54 AUDIO
    TITLE "7:cjc128_2635"
    INDEX 01 01:37:50
  TRACK 55 AUDIO
    TITLE "0:"
    INDEX 01 01:39:61
  TRACK 56 AUDIO
    TITLE "8:cjc128_2636"
    INDEX 01 01:42:33
  TRACK 57 AUDIO
    TITLE "0:"
    INDEX 01 01:44:23
  TRACK 58 AUDIO
    TITLE "7:cjc128_2637"
    INDEX 01 01:45:10
  TRACK 59 AUDIO
    TITLE "0:"
    INDEX 01 01:47:07
  TRACK 60 AUDIO
    TITLE "8:cjc128_2638"
    INDEX 01 01:49:47
  TRACK 61 AUDIO
    TITLE "0:"
    INDEX 01 01:51:32
  TRACK 62 AUDIO
    TITLE "7:cjc128_2639"
    INDEX 01 01:52:12
  TRACK 63 AUDIO
    TITLE "0:"
    INDEX 01 01:54:13
  TRACK 64 AUDIO
    TITLE "8:cjc128_2640"
    INDEX 01 01:56:63
  TRACK 65 AUDIO
    TITLE "0:"
    INDEX 01 01:58:46
  TRACK 66 AUDIO
    TITLE "7:cjc128_2641"
    INDEX 01 01:59:40
  TRACK 67 AUDIO
    TITLE "0:"
    INDEX 01 02:01:43
  TRACK 68 AUDIO
    TITLE "8:cjc128_2642"
    INDEX 01 02:04:13
  TRACK 69 AUDIO
    TITLE "0:"
    INDEX 01 02:05:70
  TRACK 70 AUDIO
    TITLE "7:cjc128_2643"
    INDEX 01 02:06:57
  TRACK 71 AUDIO
    TITLE "0:"
    INDEX 01 02:09:11
  TRACK 72 AUDIO
    TITLE "8:cjc128_2644"
    INDEX 01 02:12:13
  TRACK 73 AUDIO
    TITLE "0:"
    INDEX 01 02:13:57
  TRACK 74 AUDIO
    TITLE "7:cjc128_2645"
    INDEX 01 02:14:45
  TRACK 75 AUDIO
    TITLE "0:"
    INDEX 01 02:16:64
  TRACK 76 AUDIO
    TITLE "8:cjc128_2646"
    INDEX 01 02:20:11
  TRACK 77 AUDIO
    TITLE "0:"
    INDEX 01 02:21:65
  TRACK 78 AUDIO
    TITLE "7:cjc128_2647"
    INDEX 01 02:22:45
  TRACK 79 AUDIO
    TITLE "0:"
    INDEX 01 02:24:20
  TRACK 80 AUDIO
    TITLE "8:cjc128_2648"
    INDEX 01 02:26:46
  TRACK 81 AUDIO
    TITLE "0:"
    INDEX 01 02:28:10
  TRACK 82 AUDIO
    TITLE "7:cjc128_2649"
    INDEX 01 02:29:00
  TRACK 83 AUDIO
    TITLE "0:"
    INDEX 01 02:31:34
  TRACK 84 AUDIO
    TITLE "8:cjc128_2650"
    INDEX 01 02:34:42
  TRACK 85 AUDIO
    TITLE "0:"
    INDEX 01 02:36:13
  TRACK 86 AUDIO
    TITLE "7:cjc128_2651"
    INDEX 01 02:37:03
  TRACK 87 AUDIO
    TITLE "0:"
    INDEX 01 02:39:35
  TRACK 88 AUDIO
    TITLE "8:cjc128_2652"
    INDEX 01 02:42:42
  TRACK 89 AUDIO
    TITLE "0:"
    INDEX 01 02:44:17
  TRACK 90 AUDIO
    TITLE "7:cjc128_2653"
    INDEX 01 02:45:03
  TRACK 91 AUDIO
    TITLE "0:"
    INDEX 01 02:46:71
